HIERARCHY
ROOT Hips
{
  OFFSET 13.6774 106.653 -34.4427
  CHANNELS 6 Xposition Yposition Zposition Zrotation Xrotation Yrotation
  JOINT ToSpine
  {
    OFFSET -2.69724 7.43032 -0.144315
    CHANNELS 3 Zrotation Xrotation Yrotation
    JOINT Spine
    {
      OFFSET -0.0310711 10.7595 1.96963
      CHANNELS 3 Zrotation Xrotation Yrotation
      JOINT Spine1
      {
        OFFSET 19.9056 3.91189 0.764692
        CHANNELS 3 Zrotation Xrotation Yrotation
        JOINT Neck
        {
          OFFSET 25.9749 7.03908 -0.130764
          CHANNELS 3 Zrotation Xrotation Yrotation
          JOINT Head
          {
            OFFSET 9.52751 0.295786 -0.907742
            CHANNELS 3 Zrotation Xrotation Yrotation
            End Site
            {
              OFFSET 16.4037 0.713936 2.7358
            }
          }
        }
        JOINT LeftShoulder
        {
          OFFSET 17.7449 4.33886 11.7777
          CHANNELS 3 Zrotation Xrotation Yrotation
          JOINT LeftArm
          {
            OFFSET 0.911315 1.27913 9.80584
            CHANNELS 3 Zrotation Xrotation Yrotation
            JOINT LeftForeArm
            {
              OFFSET 28.6126 1.18197 -3.53199
              CHANNELS 3 Zrotation Xrotation Yrotation
              JOINT LeftHand
              {
                OFFSET 27.5088 0.0218783 0.327423
                CHANNELS 3 Zrotation Xrotation Yrotation
                End Site
                {
                  OFFSET 18.6038 -0.000155887 0.382096
                }
              }
            }
          }
        }
        JOINT RightShoulder
        {
          OFFSET 17.1009 2.89543 -12.2328
          CHANNELS 3 Zrotation Xrotation Yrotation
          JOINT RightArm
          {
            OFFSET 1.4228 0.178766 -10.211
            CHANNELS 3 Zrotation Xrotation Yrotation
            JOINT RightForeArm
            {
              OFFSET 28.733 1.87905 2.64907
              CHANNELS 3 Zrotation Xrotation Yrotation
              JOINT RightHand
              {
                OFFSET 27.4588 0.290562 -0.101845
                CHANNELS 3 Zrotation Xrotation Yrotation
                End Site
                {
                  OFFSET 17.8396 -0.255518 -0.000602873
                }
              }
            }
          }
        }
      }
    }
  }
  JOINT LeftUpLeg
  {
    OFFSET -5.61296 -2.22332 -10.2353
    CHANNELS 3 Zrotation Xrotation Yrotation
    JOINT LeftLeg
    {
      OFFSET 2.56703 -44.7417 -7.93097
      CHANNELS 3 Zrotation Xrotation Yrotation
      JOINT LeftFoot
      {
        OFFSET 3.16933 -46.5642 -3.96578
        CHANNELS 3 Zrotation Xrotation Yrotation
        JOINT LeftToeBase
        {
          OFFSET 0.346054 -6.02161 12.8035
          CHANNELS 3 Zrotation Xrotation Yrotation
          End Site
          {
            OFFSET 0.134235 -1.35082 5.13018
          }
        }
      }
    }
  }
  JOINT RightUpLeg
  {
    OFFSET -5.7928 -1.72406 10.6446
    CHANNELS 3 Zrotation Xrotation Yrotation
    JOINT RightLeg
    {
      OFFSET -2.57161 -44.7178 -7.85259
      CHANNELS 3 Zrotation Xrotation Yrotation
      JOINT RightFoot
      {
        OFFSET -3.10148 -46.5936 -4.03391
        CHANNELS 3 Zrotation Xrotation Yrotation
        JOINT RightToeBase
        {
          OFFSET -0.0828122 -6.13587 12.8035
          CHANNELS 3 Zrotation Xrotation Yrotation
          End Site
          {
            OFFSET -0.131328 -1.35082 5.13018
          }
        }
      }
    }
  }
}
MOTION
Frames: 7
Frame Time: 0.03333333333333333
0.0000 93.1000 0.0000 39.0915 -44.3753 -37.7754 -70.8731 0.2865 88.3109 134.0233 72.4646 -48.2018 -8.2977 27.3102 0.9959 -166.1440 22.3214 177.7579 -159.0455 61.7051 -170.2591 -0.0832 -13.9469 -33.0849 -59.0643 59.5738 -70.0809 3.9996 3.2262 -47.9062 0.0378 0.1726 -0.1407 -1.5289 6.8112 35.2270 -80.4013 -36.1638 105.2714 20.3346 -2.6038 83.4952 0.2217 -0.1187 0.5937 -4.9435 4.0655 94.0266 -2.9565 42.9356 -7.1977 -3.1402 -4.6096 -1.4392 9.5371 -20.2170 15.6812 -63.5717 0.3071 78.9153 -0.2151 28.0519 21.0136 -6.3902 -11.1563 1.6930 2.6644 -23.2144 -0.5358 
0.0000 93.1000 0.0000 38.0447 -45.1108 -40.6610 -70.7071 0.1234 88.3519 137.9281 71.9000 -56.0655 -8.8378 28.8047 0.1148 -166.1487 22.4861 175.2569 -157.1137 61.7427 -171.5867 -0.1867 -13.9148 -32.0230 -59.3805 60.9413 -67.0645 4.1813 2.7477 -51.2371 0.0239 0.2086 -0.3377 -1.5270 7.0042 32.6466 -85.1531 -38.7266 103.7726 22.9344 -0.5197 89.5782 0.0303 -0.2231 0.3269 -1.3596 5.0811 98.1055 -3.8780 49.9062 -7.9394 -2.7848 -3.8947 -1.3335 9.1222 -21.8484 15.6019 -65.7160 -2.3756 79.5488 -1.8821 31.8455 23.9118 -4.4598 -9.1272 1.2739 4.0041 -28.3394 3.5937 
0.0000 93.1000 0.0000 35.3300 -44.4268 -42.8678 -70.6654 0.4859 88.5132 134.8334 72.9390 -54.1321 -7.6279 29.4157 -0.5304 -166.3502 22.7122 173.4243 -158.4165 62.0367 -170.4013 0.2969 -13.5024 -32.0704 -64.7713 60.9389 -62.0565 4.2273 3.2575 -52.6241 -0.1150 -0.1590 -0.2739 -1.5936 6.9875 32.9939 -86.0534 -39.1007 100.3987 22.8136 0.8808 92.7875 0.0737 0.1480 0.1400 0.7905 7.1563 100.8481 -6.2152 59.1400 -4.8177 1.5470 -8.1680 -1.6348 5.6781 -15.1225 12.1225 -65.6729 -1.0858 88.0572 -1.4666 33.1326 12.7848 -2.7151 3.2703 0.4273 5.9110 -35.2809 14.9141 
0.0000 93.1000 0.0000 33.9299 -41.8744 -43.8682 -70.7737 0.2333 88.4391 130.7655 72.8232 -52.9393 -7.4764 28.7028 -0.5805 -167.0690 21.8634 171.5718 -158.9653 62.2036 -169.3845 0.0273 -14.0198 -31.6468 -69.4543 57.6896 -59.9316 4.3240 3.5616 -53.3774 0.0356 -0.1747 -0.2285 -1.9214 6.3189 34.8257 -85.1487 -38.9921 94.8918 20.7442 0.9634 94.0338 -0.1311 0.1193 -0.0205 0.9494 6.0125 101.7769 -7.5103 64.2840 -3.7995 3.7561 -13.0974 -1.8218 2.0992 -9.2003 12.1365 -61.9928 -0.2654 93.9219 2.1325 41.1616 5.8629 2.7816 17.3090 -1.4285 4.9274 -33.5496 10.6255 
0.0000 93.1000 0.0000 34.3564 -40.1085 -42.2201 -70.6936 0.8078 88.5030 127.9006 72.0303 -51.9710 -6.2981 26.9465 0.2441 -166.8019 22.2274 171.5061 -160.2401 61.5674 -166.3421 0.1315 -14.8149 -32.6696 -76.1597 53.1273 -57.8385 4.7508 2.8283 -55.1473 0.5203 -0.1154 -0.1214 -1.6153 6.4202 38.1220 -80.6458 -37.7130 89.5469 18.1730 -0.1864 91.0982 0.2960 0.1144 0.5387 -1.7381 2.6838 100.8137 -10.0546 69.0497 -1.4221 4.2869 -17.0948 -2.5488 2.5025 -9.3300 13.9383 -52.6472 1.8887 95.3614 4.1616 60.1288 3.2171 7.0237 22.9006 -2.2987 4.4533 -13.2434 -24.0266 
0.0000 93.1000 0.0000 36.9913 -38.1340 -41.2050 -70.6609 0.5422 88.4282 122.7545 70.5069 -49.3265 -4.8708 24.8316 -0.2139 -167.3758 21.4794 171.9943 -159.0575 61.2432 -165.5920 0.0137 -15.9139 -33.8048 -81.7647 49.8714 -58.0243 4.2418 2.3399 -57.8134 -0.4504 -0.1260 0.4248 -2.0226 6.7078 41.1233 -75.9609 -38.9727 85.6077 15.9053 -3.3360 81.6398 0.1785 0.1367 0.1924 -5.8473 -0.5123 100.8121 -13.0219 71.8541 -2.1929 3.3433 -19.1373 -2.3178 4.1717 -12.5415 18.7521 -39.5477 2.8129 94.2408 18.6576 80.4772 -22.3437 2.9872 18.3198 -1.7517 0.7832 -3.9573 -8.0286 
0.0000 93.1000 0.0000 37.8269 -36.4859 -39.9654 -70.4336 0.6109 88.4111 118.8924 69.5501 -46.7400 -3.6512 23.4990 0.2559 -167.8571 21.2646 171.8426 -159.2640 60.7164 -165.6370 -0.2846 -16.4264 -34.6841 -84.2416 44.0970 -64.8211 5.8277 3.2910 -59.7849 -0.3609 0.0653 0.1670 -2.0658 6.0141 43.1731 -70.8459 -40.0247 81.4257 12.8607 -5.0942 70.7322 1.0446 -0.1414 0.7447 -12.1675 -3.7112 101.0460 -12.8328 71.0526 -5.3012 4.5582 -21.9747 -3.1084 5.6387 -16.0721 22.0463 -24.7822 4.4097 94.0662 153.8060 80.0006 -156.1436 -1.5393 19.6021 -0.7026 2.4024 -10.6438 -12.0938 
